<?xml version="1.0" encoding="UTF-8"?>
<svg width="224px" height="43px" viewBox="0 0 224 43" version="1.1" xmlns="http://www.w3.org/2000/svg" xmlns:xlink="http://www.w3.org/1999/xlink">
    <title>编组 24</title>
    <defs>
        <filter x="-0.9%" y="-21.4%" width="101.9%" height="142.9%" filterUnits="objectBoundingBox" id="filter-1">
            <feOffset dx="0" dy="1" in="SourceAlpha" result="shadowOffsetOuter1"></feOffset>
            <feGaussianBlur stdDeviation="2.5" in="shadowOffsetOuter1" result="shadowBlurOuter1"></feGaussianBlur>
            <feColorMatrix values="0 0 0 0 0.560037364   0 0 0 0 0.560037364   0 0 0 0 0.560037364  0 0 0 0.5 0" type="matrix" in="shadowBlurOuter1" result="shadowMatrixOuter1"></feColorMatrix>
            <feMerge>
                <feMergeNode in="shadowMatrixOuter1"></feMergeNode>
                <feMergeNode in="SourceGraphic"></feMergeNode>
            </feMerge>
        </filter>
    </defs>
    <g id="工业数据智能平台导航规范" stroke="none" stroke-width="1" fill="none" fill-rule="evenodd">
        <g id="导航升级1" transform="translate(-371.000000, -697.000000)">
            <g id="导航-浅色" transform="translate(362.000000, 690.000000)" filter="url(#filter-1)">
                <g id="--品牌区--" transform="translate(16.000000, 14.000000)">
                    <g id="编组-24" transform="translate(2.000000, 2.647273)">
                        <text id="子品牌名称" font-family="FZLTZHK--GBK1-0, Lantinghei SC" font-size="16" font-weight="500" fill="#595959">
                            <tspan x="110" y="17.3527273">工业数据智能</tspan>
                        </text>
                        <g id="母品牌">
                            <path d="M29.1262703,12.7422898 L37.8466704,12.7422898 L37.8466704,10.2463481 L29.1262703,10.2463481 L29.1262703,12.7422898 Z M29.1262703,17.2012665 L29.1262703,14.5227099 L37.8768522,14.5227099 L37.8768522,16.3034348 C37.8768522,16.5570837 37.8058183,16.7698805 37.6640554,16.9427398 C37.511927,17.1149893 37.3140687,17.2012665 37.0704804,17.2012665 L29.1262703,17.2012665 L29.1262703,17.2012665 Z M31.2871638,8.46562316 L26.7672137,8.46562316 L26.7672137,19.0277215 L38.3335421,19.0277215 C38.9118738,19.0277215 39.363381,18.8704104 39.6880638,18.5557882 C40.0023811,18.241166 40.1599971,17.8049021 40.1599971,17.2469965 L40.1599971,8.46562316 L33.9962071,8.46562316 L34.6050254,6.54801317 L40.8904571,6.54801317 L40.8904571,4.63040317 L26.097727,4.63040317 L26.097727,6.57849981 L31.8959821,6.57849981 L31.2871638,8.46562316 L31.2871638,8.46562316 Z" id="Fill-43" fill="#282828"></path>
                            <path d="M51.4825847,3.85412172 L51.4825847,4.63031171 L56.931158,4.63031171 L56.931158,6.30433341 L44.5886396,6.30433341 L44.5886396,15.55764 C44.5886396,16.9679522 44.4566324,18.1246156 44.1929229,19.02763 L44.1929229,19.02763 L42.0164813,19.02763 C42.3515296,18.1953446 42.5185964,17.0389861 42.5185964,15.55764 L42.5185964,15.55764 L42.5185964,4.63031171 L49.0326779,4.63031171 L49.0326779,3.85412172 L51.4825847,3.85412172 Z M56.3984039,13.1074588 L56.3984039,15.0250688 C54.8966317,15.86711 53.8213677,16.4506244 53.1720022,16.7750023 L53.1720022,16.7750023 L53.0046305,16.896644 L53.2024888,16.9426788 C53.9024622,17.2268144 54.40976,17.3685773 54.7243822,17.3685773 L54.7243822,17.3685773 L56.9310056,17.3685773 L56.9310056,19.0276605 L54.5112805,19.0276605 C53.8518544,19.0276605 52.720495,18.6471872 51.1175072,17.8862405 L51.1175072,17.8862405 L51.0108039,17.8862405 C49.3977555,18.6471872 48.2563355,19.0276605 47.5865439,19.0276605 L47.5865439,19.0276605 L45.1668188,19.0276605 L45.1668188,17.3685773 L47.3585038,17.3685773 C47.673126,17.3685773 48.1953622,17.2268144 48.9258222,16.9426788 L48.9258222,16.9426788 L49.0931939,16.896644 L48.9258222,16.7750023 L45.6994205,15.0250688 L45.6994205,13.1074588 L56.3984039,13.1074588 Z M53.6439355,14.6141088 L48.4541938,14.6141088 L48.4237072,14.7814805 L49.7477422,15.4509673 C50.5797227,15.8265627 51.0159866,16.0195432 51.0565339,16.0296038 L51.0565339,16.0296038 L53.7046039,14.7814805 L53.6439355,14.6141088 Z M48.6974772,7.01976352 L48.6974772,7.55267008 L53.5372322,7.55267008 L53.5372322,7.01976352 L55.5917272,7.01976352 L55.5917272,7.55267008 L56.9310056,7.55267008 L56.9310056,9.21144846 L55.5917272,9.21144846 L55.5917272,11.1595451 C55.5917272,11.4333152 55.5005722,11.6668429 55.3179572,11.8592136 C55.1353422,12.0421335 54.9021193,12.1332886 54.6176789,12.1332886 L54.6176789,12.1332886 L46.6432871,12.1332886 L46.6432871,9.21144846 L45.3040087,9.21144846 L45.3040087,7.55267008 L46.6432871,7.55267008 L46.6432871,7.01976352 L48.6974772,7.01976352 Z M53.5372322,9.21144846 L48.6974772,9.21144846 L48.6974772,10.4745102 L53.0351171,10.4745102 C53.1872455,10.4745102 53.3088872,10.4235975 53.4003472,10.3220769 C53.4918071,10.2312267 53.5372322,10.1144629 53.5372322,9.97239513 L53.5372322,9.97239513 L53.5372322,9.21144846 Z" id="形状结合" fill="#282828"></path>
                            <path d="M104.673062,9.68289394 L104.673062,11.6312955 L95.3286001,11.6312955 L93.0454553,17.1100505 L101.857315,17.1100505 C102.009444,17.1100505 102.141451,17.0542599 102.253032,16.9426788 C102.364613,16.8106716 102.420404,16.6737866 102.420404,16.5317188 L102.420404,16.5317188 L102.420404,14.6141088 L104.383744,14.6141088 L104.383744,17.2774222 C104.383744,17.7642939 104.216372,18.1801318 103.881324,18.5252406 C103.53652,18.8602888 103.120377,19.0276605 102.633505,19.0276605 L102.633505,19.0276605 L90.7931019,19.0276605 L90.7931019,17.3685773 L93.1521585,11.6312955 L90.6867035,11.6312955 L90.6867035,9.68289394 L104.673062,9.68289394 Z M104.612119,4.43254484 L104.612119,6.38064148 L91.0672073,6.38064148 L91.0672073,4.43254484 L104.612119,4.43254484 Z" id="形状结合" fill="#282828"></path>
                            <path d="M72.743514,11.9660693 L72.743514,17.246966 C72.743514,17.7237772 72.5761423,18.1447977 72.2413989,18.5100277 C71.8962901,18.8551366 71.4700868,19.027691 70.9630939,19.027691 L70.9630939,19.027691 L58.8943455,19.027691 L58.8943455,11.9660693 L72.743514,11.9660693 Z M70.8563906,16.3948643 L60.7967122,16.3948643 L60.7967122,17.2317227 L70.4454306,17.2317227 C70.7195056,17.2317227 70.8563906,17.0896549 70.8563906,16.8058243 L70.8563906,16.8058243 L70.8563906,16.3948643 Z M70.8563906,13.776976 L60.7967122,13.776976 L60.7967122,14.5226794 L70.8563906,14.5226794 L70.8563906,13.776976 Z M73.1087745,4.40248501 L73.1087745,9.7745368 C73.1087745,10.2614085 72.9414028,10.6775512 72.6066594,11.0223552 C72.25149,11.3775246 71.8252867,11.5549569 71.3280495,11.5549569 L71.3280495,11.5549569 L66.4581128,11.5549569 L66.4581128,4.40248501 L73.1087745,4.40248501 Z M61.9532841,4.1281052 L61.5118375,4.70674173 L66.0470308,4.70674173 L66.0470308,6.44143185 L63.2925624,6.44143185 L63.2925624,7.1871352 L66.0470308,7.1871352 L66.0470308,8.90688687 L63.6577924,8.90688687 L64.190699,9.57667847 C64.2818541,9.68825959 64.4086785,9.74405015 64.5711723,9.74405015 L64.5711723,9.74405015 L65.879964,9.74405015 L65.879964,11.5247751 L64.2056374,11.5247751 C63.7693735,11.5247751 63.3889002,11.3570986 63.0642174,11.0223552 L63.0642174,11.0223552 L62.2578457,10.0483069 L61.7401824,10.8244969 C61.4258651,11.2912474 60.9896012,11.5247751 60.4313907,11.5247751 L60.4313907,11.5247751 L58.5899974,11.5247751 L58.5899974,9.74405015 L60.1576207,9.74405015 C60.3603569,9.74405015 60.5277285,9.65259022 60.6597357,9.47028008 L60.6597357,9.47028008 L60.9642973,8.90688687 L58.574754,8.90688687 L58.574754,7.1871352 L61.2380674,7.1871352 L61.2380674,6.44143185 L60.2033506,6.44143185 C59.9493969,6.64447291 59.6808095,6.74599344 59.396674,6.74599344 L59.396674,6.74599344 L58.5442674,6.74599344 L58.5442674,5.01099845 L58.8945589,5.01099845 C59.0466873,5.01099845 59.1582684,4.96039062 59.2293023,4.85887009 L59.2293023,4.85887009 L59.7920858,4.1281052 L61.9532841,4.1281052 Z M71.2216511,6.30454681 L68.3604794,6.30454681 L68.3604794,9.66783354 L70.6280761,9.66783354 C70.7802045,9.66783354 70.9222722,9.61204298 71.0542794,9.50046186 C71.1658605,9.36875955 71.2216511,9.22669178 71.2216511,9.07456342 L71.2216511,9.07456342 L71.2216511,6.30454681 Z" id="形状结合" fill="#282828"></path>
                            <path d="M84.477214,11.8900051 L84.477214,13.3055001 L86.5320139,13.3055001 C86.7347501,13.3055001 86.8362707,13.2140401 86.8362707,13.0311203 L86.8362707,13.0311203 L86.8362707,12.2396869 L88.7386373,12.2396869 L88.7386373,13.7161552 C88.7386373,14.1423585 88.5965696,14.4975279 88.312434,14.7813586 C88.0182379,15.0755547 87.6682512,15.2228052 87.262474,15.2228052 L87.262474,15.2228052 L84.477214,15.2228052 L84.477214,16.6379953 C84.477214,16.9931647 84.6549512,17.1709018 85.0101206,17.1709018 L85.0101206,17.1709018 L89.0127123,17.1709018 L89.0127123,19.0275386 L84.4013023,19.0275386 C83.9244912,19.0275386 83.5034706,18.855289 83.1382406,18.5101802 C82.7931318,18.1550108 82.6205773,17.7339902 82.6205773,17.2468136 L82.6205773,17.2468136 L82.6205773,11.8900051 L84.477214,11.8900051 Z M81.9510906,9.19608319 L81.9510906,17.2012665 C81.9510906,17.7085643 81.7733535,18.1448282 81.4184889,18.5100582 C81.0733801,18.8551671 80.6371162,19.0277215 80.1093924,19.0277215 L80.1093924,19.0277215 L79.4703923,19.0277215 L79.4703923,17.3686382 C79.6225206,17.3686382 79.7645884,17.3131525 79.8962907,17.2012665 C80.0081767,17.0591988 80.0639673,16.9070704 80.0639673,16.7445766 L80.0639673,16.7445766 L80.0639673,16.6381782 L77.1113356,16.6381782 L77.1113356,19.0277215 L75.1937256,19.0277215 L75.1937256,9.19608319 L81.9510906,9.19608319 Z M80.0639673,13.8834049 L77.1113356,13.8834049 L77.1113356,14.7510549 L80.0639673,14.7510549 L80.0639673,13.8834049 Z M80.0639673,11.1139981 L77.1113356,11.1139981 L77.1113356,11.9660998 L80.0639673,11.9660998 L80.0639673,11.1139981 Z M84.477214,4.2194127 L84.477214,5.40656267 L86.5167706,5.40656267 C86.7298723,5.40656267 86.8362707,5.29498155 86.8362707,5.07181931 L86.8362707,5.07181931 L86.8362707,4.32611596 L88.7386373,4.32611596 L88.7386373,5.57423922 C88.7386373,6.0406849 88.5813263,6.45652274 88.2670089,6.82175275 C87.9319607,7.15680099 87.5313662,7.32417267 87.0646156,7.32417267 L87.0646156,7.32417267 L84.477214,7.32417267 L84.477214,8.87655266 C84.477214,9.02868102 84.522944,9.15032273 84.614404,9.24178267 C84.7461063,9.35336379 84.8781134,9.40915435 85.0101206,9.40915435 L85.0101206,9.40915435 L89.0127123,9.40915435 L89.0127123,11.2508526 L84.4013023,11.2508526 C83.9244912,11.2508526 83.5034706,11.0831761 83.1382406,10.7484327 C82.7931318,10.4036287 82.6205773,9.97742542 82.6205773,9.47012764 L82.6205773,9.47012764 L82.6205773,4.2194127 L84.477214,4.2194127 Z M79.5616388,4.18920044 L77.4766571,6.85251378 L79.9725988,6.85251378 C80.2363083,6.85220891 80.3683154,6.72081147 80.3683154,6.45649226 L80.3683154,6.45649226 L80.3683154,5.98486385 L82.1487355,5.98486385 L82.1487355,7.1567705 C82.1487355,7.56254775 81.9966072,7.90765658 81.6923504,8.19179211 C81.4182755,8.48598824 81.0786543,8.63293387 80.6725722,8.63293387 L80.6725722,8.63293387 L74.8590737,8.63293387 L74.8590737,7.1113454 L77.1724004,4.18920044 L79.5616388,4.18920044 Z" id="形状结合" fill="#282828"></path>
                            <g id="编组-5">
                                <path d="M10.1903746,5.12846349 C10.3095774,5.12846349 10.411098,5.14614575 10.495546,5.18059566 L14.8871472,7.75610746 C14.981351,7.7957401 15.0831764,7.81555642 15.1923186,7.81555642 C15.3115213,7.81555642 15.4255414,7.79086224 15.5346836,7.74116901 L19.6064799,5.45589007 L10.1604977,0 L0.699881919,5.45589007 L4.83082237,7.77104592 C4.92014825,7.81067856 5.01953471,7.83049488 5.1286769,7.83049488 C5.24787968,7.83049488 5.34696128,7.81067856 5.42653143,7.77104592 L9.87788653,5.18791245 C9.98184599,5.14827981 10.0861103,5.12846349 10.1903746,5.12846349" id="Fill-57" fill="#5BCA87"></path>
                                <path d="M16.107863,9.29687204 C15.9590882,9.4508296 15.879518,9.63679813 15.8697623,9.85508252 L15.8697623,14.6863012 C15.8648844,14.8994029 15.7828754,15.0756157 15.6240399,15.2146348 L15.5124588,15.3188991 L11.4333457,17.752648 C11.3440198,17.7925855 11.2598766,17.8520345 11.1803065,17.9312998 C11.0364095,18.0703189 10.9595832,18.2514095 10.9495226,18.4745718 L10.9495226,22.978059 L20.2985573,17.5666795 L20.2985573,6.9152553 L16.3685238,9.1109035 C16.2691374,9.16059673 16.1822504,9.22248462 16.107863,9.29687204" id="Fill-58" fill="#EC5D3E"></path>
                                <path d="M4.66720055,15.237012 C4.51842572,15.0979929 4.43885557,14.9245239 4.42909985,14.7159952 L4.42909985,9.85520446 C4.42909985,9.65185854 4.3495297,9.46558513 4.19099915,9.29699398 C4.10167328,9.21772871 4.01478634,9.15553595 3.93033833,9.11072058 L6.25070904e-13,6.92269404 L6.25070904e-13,17.5963735 L9.34903469,22.9632425 L9.34903469,18.4597553 C9.34415682,18.236593 9.26733048,18.0555023 9.11855565,17.9164832 C9.03410764,17.8323401 8.9472207,17.7725863 8.85789483,17.7378315 L4.78640333,15.3412763 L4.66720055,15.237012 Z" id="Fill-59" fill="#2464F5"></path>
                            </g>
                        </g>
                    </g>
                </g>
            </g>
        </g>
    </g>
</svg>