<?xml version="1.0" encoding="UTF-8"?>
<svg width="16px" height="16px" viewBox="0 0 16 16" version="1.1" xmlns="http://www.w3.org/2000/svg" xmlns:xlink="http://www.w3.org/1999/xlink">
    <title>图标 </title>
    <g id="页面-1" stroke="none" stroke-width="1" fill="none" fill-rule="evenodd">
        <g id="编组" fill="#151B26">
            <rect id="矩形" stroke="#151B26" opacity="0" x="0.5" y="0.5" width="15" height="15"></rect>
            <path d="M11.4991,1.9996 L14.9991,8.0626 L11.4991,14.1246 L4.5001,14.1246 L1.0001,8.0626 L4.5001,1.9996 L11.4991,1.9996 Z M10.9221,3.0006 L5.0771,3.0006 L2.1551,8.0626 L5.0771,13.1236 L10.9221,13.1236 L13.8461,8.0626 L10.9221,3.0006 Z M7.9998,6.0625 C9.1048,6.0625 9.9998,6.9585 9.9998,8.0625 C9.9998,9.1665 9.1048,10.0625 7.9998,10.0625 C6.8958,10.0625 5.9998,9.1665 5.9998,8.0625 C5.9998,6.9585 6.8958,6.0625 7.9998,6.0625 Z M7.9998,7.0625 C7.4488,7.0625 6.9998,7.5105 6.9998,8.0625 C6.9998,8.6135 7.4488,9.0625 7.9998,9.0625 C8.5518,9.0625 8.9998,8.6135 8.9998,8.0625 C8.9998,7.5105 8.5518,7.0625 7.9998,7.0625 Z" id="图标-填色"></path>
        </g>
    </g>
</svg>