<?xml version="1.0" encoding="UTF-8"?>
<svg width="303px" height="28px" viewBox="0 0 303 28" version="1.1" xmlns="http://www.w3.org/2000/svg" xmlns:xlink="http://www.w3.org/1999/xlink">
    <title>编组 7</title>
    <defs>
        <polygon id="path-1" points="0 0 10.0482928 0 10.0482928 17.4286416 0 17.4286416"></polygon>
        <polygon id="path-3" points="0 28 202.052567 28 202.052567 0 0 0"></polygon>
        <polygon id="path-5" points="0 5.8737411 4.05040531 8.21223287 8.6730533 3.46647015 2.66175387 0"></polygon>
        <linearGradient x1="19.1133989%" y1="35.6552245%" x2="72.959866%" y2="71.3973651%" id="linearGradient-7">
            <stop stop-color="#0031B8" offset="0%"></stop>
            <stop stop-color="#0050FF" offset="100%"></stop>
        </linearGradient>
        <polygon id="path-8" points="0 14.2716777 10.0280029 20.0628838 20.4466716 14.0515844 20.4466716 1.96708425 17.0496684 0"></polygon>
        <linearGradient x1="43.9644652%" y1="36.0514594%" x2="103.403526%" y2="83.0533364%" id="linearGradient-10">
            <stop stop-color="#0031B8" offset="0%"></stop>
            <stop stop-color="#0050FF" offset="100%"></stop>
        </linearGradient>
        <polygon id="path-11" points="0 6.23139278 4.2168509 8.66617539 8.39037092 6.25890445 8.39037092 4.57381479 0.460132646 0"></polygon>
        <linearGradient x1="27.715393%" y1="48.1040024%" x2="87.7263665%" y2="86.437354%" id="linearGradient-13">
            <stop stop-color="#0031B8" offset="0%"></stop>
            <stop stop-color="#0050FF" offset="100%"></stop>
        </linearGradient>
        <polygon id="path-14" points="0 28 202.052567 28 202.052567 0 0 0"></polygon>
    </defs>
    <g id="页面-1" stroke="none" stroke-width="1" fill="none" fill-rule="evenodd">
        <g id="2.导航/1.导航/1.顶部导航/2.顶部导航-无更多-2备份-6" transform="translate(-16.000000, -14.000000)">
            <g id="编组-7" transform="translate(16.000000, 14.000000)">
                <g id="编组">
                    <g>
                        <polygon id="Fill-1" fill="#000000" points="126.704986 5.93564235 126.973225 5.93564235 126.973225 21.4934905 126.704986 21.4934905"></polygon>
                        <path d="M19.2854041,5.71548023 L11.2795087,1.0866421 L1.10706952,6.91223778 L4.92431344,9.12004913 C5.21456153,9.28580693 5.57014984,9.28580693 5.85971014,9.12004913 L10.2753328,6.57521985 C10.8613314,6.23888971 11.5814493,6.23888971 12.16676,6.57521985 L16.554871,9.09941538 C16.8444313,9.26517318 17.2007074,9.26517318 17.4909555,9.09941538 L21.3143896,6.89848195 L19.2510145,5.71548023" id="Fill-3" fill="#00BB4C"></path>
                        <g transform="translate(0.000000, 8.852017)">
                            <mask id="mask-2" fill="white">
                                <use xlink:href="#path-1"></use>
                            </mask>
                            <g id="Clip-6"></g>
                            <path d="M9.57371653,12.2151805 L5.23375092,9.71849668 C4.65050356,9.37941538 4.2914763,8.7562761 4.2914763,8.08155244 L4.2914763,3.01252763 C4.29216409,2.6755097 4.11127487,2.36531565 3.81758782,2.20093343 L-0.000343895849,0 L-0.000343895849,11.6443134 L10.0482928,17.4286416 L10.0482928,13.0198968 C10.0462294,12.6856301 9.86877917,12.3774994 9.58128224,12.2083026" id="Fill-5" fill="#0061F1" mask="url(#mask-2)"></path>
                        </g>
                        <path d="M12.9233309,21.0671972 L17.2701744,18.5705134 C17.8541096,18.2314321 18.212449,17.6082928 18.212449,16.9335691 L18.212449,11.8645443 C18.2117612,11.5275264 18.3933382,11.2173324 18.6870253,11.0529501 L22.504957,8.8520167 L22.504957,20.4963301 L12.4556325,26.2944141 L12.4556325,21.8719135 C12.4576959,21.5376468 12.6358339,21.2295161 12.9233309,21.0603193" id="Fill-7" fill="#FF2000"></path>
                        <path d="M42.2371506,15.1246082 L32.4161729,15.1246082 L32.4161729,12.3459297 L42.2172046,12.3459297 L42.2371506,15.1246082 Z M42.2371506,19.120678 C42.2942373,19.6035077 41.9489659,20.0409433 41.4661361,20.09803 C41.4276197,20.1028445 41.3891034,20.1049079 41.3498993,20.1042201 L32.4086072,20.1042201 L32.4086072,17.1467158 L42.2371506,17.1467158 L42.2371506,19.120678 Z M29.0040383,8.21917956 L35.5311815,8.21917956 L35.4486465,8.49429624 L34.8433898,10.337578 L29.7544191,10.337578 L29.7544191,22.2088627 L42.7529944,22.2088627 C43.7764284,22.3216605 44.6973815,21.5843478 44.8101793,20.5609138 C44.8232474,20.4460526 44.8253107,20.3298158 44.8163694,20.2142668 L44.8163694,10.337578 L37.8634832,10.337578 L38.5512749,8.19166789 L45.5866961,8.19166789 L45.5866961,6.05263572 L29.0040383,6.05263572 L29.0040383,8.21917956 Z" id="Fill-9" fill="#282828"></path>
                        <path d="M59.7966102,12.0433014 C59.7966102,12.3473053 59.5503807,12.5935348 59.2463768,12.5935348 L54.3836895,12.5935348 L54.3836895,11.2179514 L59.7966102,11.2179514 L59.7966102,12.0433014 Z M62.1213461,8.72814542 L59.7966102,8.72814542 L59.7966102,9.31964628 L54.3836895,9.31964628 L54.3836895,8.72814542 L52.0589536,8.72814542 L52.0589536,9.31964628 L50.5733235,9.31964628 L50.5733235,11.1973176 L52.0589536,11.1973176 L52.0589536,14.4712061 L61.0002456,14.4712061 C61.6006878,14.4712061 62.0869565,13.9849374 62.0869565,13.3844952 L62.0869565,11.1973176 L63.5725866,11.1973176 L63.5725866,9.31964628 L62.0869565,9.31964628 L62.1213461,8.72814542 Z" id="Fill-11" fill="#282828"></path>
                        <path d="M57.5062638,5.15836895 L54.755097,5.15836895 L54.755097,6.05249816 L47.464505,6.05249816 L47.464505,18.2951904 C47.530533,19.6253795 47.3345124,20.9548809 46.88676,22.2087251 L49.3352985,22.2087251 C49.6564972,20.9301204 49.8071236,19.6136871 49.7830508,18.2951904 L49.7830508,7.92329157 L63.620732,7.92329157 L63.620732,6.05249816 L57.5062638,6.05249816 L57.5062638,5.15836895 Z" id="Fill-13" fill="#282828"></path>
                        <path d="M57.0246721,18.8248588 C56.8320904,18.8248588 54.3216507,17.5799558 54.0540997,17.4492754 L54.1015574,17.2566937 L59.927153,17.2566937 L59.9752985,17.4492754 C59.4463866,17.7450258 57.2241317,18.7904692 57.0246721,18.8248588 M59.4181872,19.8771801 L59.2049718,19.7946451 L59.4044313,19.6914763 C60.9106952,18.88676 62.6851977,17.8825841 63.0084598,17.6968804 L63.0084598,15.571604 L51.0209383,15.571604 L51.0209383,17.6968804 C51.3435127,17.8825841 53.0843134,18.88676 54.624279,19.6914763 L54.8237386,19.7946451 L54.6105232,19.8771801 C54.0575387,20.1192827 53.4708524,20.276787 52.8704102,20.3448784 L50.4218718,20.3448784 L50.4218718,22.2087939 L53.1393368,22.2087939 C53.4412773,22.2087939 54.2459936,22.2087939 56.9696487,20.9226234 L57.0391157,20.9226234 C59.7483272,22.201916 60.5530435,22.201916 60.8556718,22.201916 L63.6068386,22.201916 L63.6068386,20.3448784 L61.1583002,20.3448784 C60.5585458,20.276787 59.9718595,20.1192827 59.4181872,19.8771801" id="Fill-15" fill="#282828"></path>
                        <path d="M117.192965,13.9001326 L117.192965,11.719833 L101.52507,11.719833 L101.52507,13.9001326 L104.276237,13.9001326 L101.641995,20.330985 L101.641995,22.2086563 L114.923252,22.2086563 C116.009275,22.2086563 116.890337,21.328283 116.890337,20.2415721 L116.890337,17.2496782 L114.688715,17.2496782 L114.688715,19.3887104 C114.688715,19.7683714 114.381272,20.0765021 114.000924,20.0765021 L104.152434,20.0765021 L106.704141,13.9276443 L117.192965,13.9001326 Z" id="Fill-17" fill="#282828"></path>
                        <mask id="mask-4" fill="white">
                            <use xlink:href="#path-3"></use>
                        </mask>
                        <g id="Clip-20"></g>
                        <polygon id="Fill-19" fill="#282828" mask="url(#mask-4)" points="101.937607 8.00589536 117.11717 8.00589536 117.11717 5.82559568 101.937607 5.82559568"></polygon>
                        <path d="M67.2246229,11.7749939 L65.4913879,11.7749939 L65.4913879,13.7764677 L67.554763,13.7764677 C68.1359469,13.7744043 68.6799902,13.4896586 69.0135691,13.0130189 L69.6112601,12.1395235 L70.5260231,13.2262343 C70.8540997,13.5756325 71.312169,13.7744043 71.7922476,13.7764677 L73.6692311,13.7764677 L73.6692311,11.7749939 L72.1836011,11.7749939 C72.0212822,11.7756817 71.8651535,11.711717 71.7502923,11.596168 L71.1725473,10.8671088 L73.828111,10.8671088 L73.828111,8.9137804 L70.7598723,8.9137804 L70.7598723,8.11594203 L73.828111,8.11594203 L73.828111,6.14885777 L68.7515205,6.14885777 L69.2467305,5.46106608 L66.8188258,5.46106608 L66.1998133,6.2795382 C66.1152149,6.39096045 65.9824711,6.45767625 65.8421616,6.45836404 L65.4088529,6.45836404 L65.4088529,8.39105871 L66.3855171,8.39105871 C66.7135937,8.39105871 67.0306657,8.27413412 67.2796463,8.06091869 L68.462648,8.06091869 L68.462648,8.89314665 L65.4569983,8.89314665 L65.4569983,10.8671088 L68.1256301,10.8671088 L67.7748563,11.4929993 C67.6579317,11.6842054 67.448843,11.7990666 67.2246229,11.7956276" id="Fill-21" fill="#282828" mask="url(#mask-4)"></path>
                        <path d="M76.4413068,7.91655122 L79.653294,7.91655122 L79.653294,11.0322476 C79.653294,11.4119086 79.3451634,11.7200393 78.9655023,11.7200393 L76.4206731,11.7200393 L76.4413068,7.91655122 Z M74.3084648,13.8109261 L79.8107983,13.8109261 C80.9167674,13.8109261 81.81296,12.9147335 81.81296,11.8094522 L81.81296,5.78439695 L74.3084648,5.78439695 L74.3084648,13.8109261 Z" id="Fill-22" fill="#282828" mask="url(#mask-4)"></path>
                        <path d="M67.946254,17.146647 L79.2473594,17.146647 L79.2473594,16.3006632 L67.946254,16.3006632 L67.946254,17.146647 Z M79.2473594,19.718988 C79.2473594,19.9734709 79.0410219,20.1798084 78.7865389,20.1798084 L67.9469418,20.1798084 L67.9469418,19.2444117 L79.2473594,19.2444117 L79.2473594,19.718988 Z M79.2473594,14.2647998 L65.8147875,14.2647998 L65.8147875,22.2087939 L79.3780398,22.2087939 C80.4833211,22.2087939 81.3795136,21.3126013 81.3795136,20.2073201 L81.3795136,14.2647998 L79.2473594,14.2647998 Z" id="Fill-23" fill="#282828" mask="url(#mask-4)"></path>
                        <path d="M89.908337,8.11601081 C89.908337,8.35948907 89.7109408,8.55619749 89.4674625,8.55619749 L86.6612724,8.55619749 L89.000452,5.55054778 L86.3249423,5.55054778 L83.7381577,8.80380251 L83.7381577,10.5164038 L90.2377892,10.5164038 C91.1442987,10.5122771 91.8809236,9.78528126 91.896055,8.87945959 L91.896055,7.56577745 L89.8938934,7.56577745 L89.908337,8.11601081 Z" id="Fill-24" fill="#282828" mask="url(#mask-4)"></path>
                        <path d="M94.5159912,10.8121543 L94.5159912,9.05828543 L97.432228,9.05828543 C98.4811103,9.05071972 99.3250307,8.19510685 99.317465,7.14691231 C99.317465,7.13315647 99.317465,7.11871285 99.3167772,7.10495701 L99.3167772,5.72937362 L97.1853107,5.72937362 L97.1853107,6.56847949 C97.1853107,6.77137804 97.0229919,6.93576026 96.8207811,6.93988701 L94.5159912,6.93988701 L94.5159912,5.56430361 L92.4526161,5.56430361 L92.4526161,11.4724343 C92.4526161,12.5742766 93.3460575,13.4670302 94.447212,13.4670302 L94.4540899,13.4670302 L99.6269713,13.4670302 L99.6269713,11.4036551 L95.1219356,11.4036551 C94.7911078,11.4036551 94.5235569,11.1354164 94.5235569,10.8052763" id="Fill-25" fill="#282828" mask="url(#mask-4)"></path>
                        <path d="M94.5159912,19.5264063 L94.5159912,17.9238516 L97.6530091,17.9238516 C98.5718988,17.9238516 99.3167772,17.1782854 99.3167772,16.2593957 L99.3167772,14.581184 L97.1853107,14.581184 L97.1853107,15.4546794 C97.1853107,15.641071 97.0339966,15.7916974 96.8482928,15.7916974 L94.5159912,15.7916974 L94.5159912,14.1891427 L92.4526161,14.1891427 L92.4526161,20.1935642 C92.4526161,21.2988455 93.3494964,22.1950381 94.4540899,22.1950381 L99.6269713,22.1950381 L99.6269713,20.131663 L95.1219356,20.131663 C94.7911078,20.131663 94.5235569,19.864112 94.5235569,19.5332842" id="Fill-26" fill="#282828" mask="url(#mask-4)"></path>
                        <path d="M86.2490789,17.4011299 L89.5779907,17.4011299 L89.5779907,16.4175878 L86.2490789,16.4175878 L86.2490789,17.4011299 Z M86.2490789,14.3060673 L89.5779907,14.3060673 L89.5779907,13.3018914 L86.2490789,13.3018914 L86.2490789,14.3060673 Z M84.1169246,11.1697372 L84.1169246,22.1744043 L86.2490789,22.1744043 L86.2490789,20.1110292 L86.2490789,19.5332842 L89.5779907,19.5332842 L89.5779907,19.6570867 C89.5779907,20.0367477 89.2705478,20.3448784 88.890199,20.3448784 L88.890199,22.2225497 L89.633014,22.2225497 C90.7726848,22.2225497 91.6963891,21.2988455 91.6963891,20.1591746 L91.6963891,11.2178826 L84.1306804,11.2178826 L84.1169246,11.1697372 Z" id="Fill-27" fill="#282828" mask="url(#mask-4)"></path>
                        <polygon id="Fill-28" fill="#0050FF" mask="url(#mask-4)" points="160.736782 21.0050897 160.736782 7.0016507 148.604137 -6.87791697e-05 136.485247 7.0016507 136.485247 21.0050897 148.604137 27.9999312"></polygon>
                    </g>
                    <g transform="translate(142.070253, 5.612380)">
                        <mask id="mask-6" fill="white">
                            <use xlink:href="#path-5"></use>
                        </mask>
                        <g id="Clip-30"></g>
                        <polygon id="Fill-29" fill="url(#linearGradient-7)" mask="url(#mask-6)" points="0 5.8737411 4.05040531 8.21223287 8.6730533 3.46647015 2.66175387 0"></polygon>
                    </g>
                    <g transform="translate(140.289560, 6.953574)">
                        <mask id="mask-9" fill="white">
                            <use xlink:href="#path-8"></use>
                        </mask>
                        <g id="Clip-32"></g>
                        <polygon id="Fill-31" fill="url(#linearGradient-10)" mask="url(#mask-9)" points="0 14.2716777 10.0280029 20.0628838 20.4466716 14.0515844 20.4466716 1.96708425 17.0496684 0"></polygon>
                    </g>
                    <g transform="translate(152.345861, 14.746254)">
                        <mask id="mask-12" fill="white">
                            <use xlink:href="#path-11"></use>
                        </mask>
                        <g id="Clip-34"></g>
                        <polygon id="Fill-33" fill="url(#linearGradient-13)" mask="url(#mask-12)" points="0 6.23139278 4.2168509 8.66617539 8.39037092 6.25890445 8.39037092 4.57381479 0.460132646 0"></polygon>
                    </g>
                    <g>
                        <polygon id="Fill-35" fill="#FFFFFF" points="150.867246 6.95371162 144.732144 12.2840973 144.732144 5.61251781 140.28901 8.22612626 140.28901 21.2253893 157.339366 6.95371162"></polygon>
                        <polygon id="Fill-37" fill="#FFFFFF" points="152.806338 14.7461164 147.819848 14.7461164 152.345517 20.9775092 157.339573 20.9775092"></polygon>
                        <mask id="mask-15" fill="white">
                            <use xlink:href="#path-14"></use>
                        </mask>
                        <g id="Clip-40"></g>
                        <path d="M171.163842,13.1436993 L176.549251,13.1436993 L176.549251,8.11594203 L171.163842,8.11594203 L171.163842,13.1436993 Z M181.363793,8.11594203 L181.363793,5.93564235 L166.266765,5.93564235 L166.266765,8.11594203 L168.584623,8.11594203 L168.584623,13.1436993 L165.48956,13.1436993 L165.48956,15.4753132 L168.5296,15.4753132 C168.478015,16.6500614 168.246229,17.8096782 167.841808,18.9142717 C167.495161,20.0443134 167.033653,21.1372144 166.466225,22.1744043 L169.437485,22.1744043 C169.925817,21.1695407 170.306166,20.1158438 170.572341,19.0311963 C170.914861,17.8750184 171.110882,16.6803242 171.156964,15.4753132 L176.569885,15.4753132 L176.569885,22.1744043 L179.155981,22.1744043 L179.155981,15.4753132 L182.120364,15.4753132 L182.120364,13.1230656 L179.155981,13.1230656 L179.155981,8.11594203 L181.363793,8.11594203 Z" id="Fill-39" fill="#222222" mask="url(#mask-15)"></path>
                        <path d="M190.250061,16.3695112 L190.250061,22.181351 L188.111029,22.181351 L188.111029,9.93178089 L187.423238,9.93178089 C187.388848,10.3994792 187.34758,10.8671776 187.299435,11.3073643 C187.25129,11.747551 187.196266,12.2290052 187.134365,12.6829477 L185.23606,12.6829477 C185.446524,11.546028 185.586834,10.3974159 185.655613,9.24398919 C185.73127,8.08849914 185.76566,7.00866618 185.76566,6.0044903 L187.567674,6.0044903 L187.567674,6.96739867 L187.567674,7.93718497 L188.117907,7.93718497 L188.117907,5.29606485 L190.250061,5.29606485 L190.250061,7.98533039 L192.065831,7.98533039 L192.065831,9.93178089 L190.250061,9.93178089 L190.250061,16.3695112 Z" id="Fill-41" fill="#222222" mask="url(#mask-15)"></path>
                        <polygon id="Fill-42" fill="#222222" mask="url(#mask-15)" points="202.052636 8.81054286 193.455239 8.81054286 193.152611 6.80219111 202.052636 6.80219111"></polygon>
                        <path d="M193.792395,12.1051339 L191.570828,12.1051339 C192.011702,10.9909113 192.354223,9.84023581 192.595637,8.66617539 C192.835677,7.46941783 193.007625,6.37582903 193.111481,5.37165316 L195.174856,5.37165316 C194.968519,7.66131172 194.504259,9.92001965 193.792395,12.1051339" id="Fill-43" fill="#222222" mask="url(#mask-15)"></path>
                        <path d="M199.638624,8.80380251 L197.575249,8.73502334 C197.375102,13.3583591 196.36955,17.9108524 194.603989,22.1882289 L196.811801,22.1882289 C198.479695,17.9115402 199.43435,13.3893098 199.638624,8.80380251" id="Fill-44" fill="#222222" mask="url(#mask-15)"></path>
                        <path d="M196.976802,8.80380251 L194.913427,8.71438958 C194.687831,13.4120069 193.438801,18.0030165 191.254375,22.1675952 L193.537843,22.1675952 C195.583336,17.9940752 196.753269,13.4463965 196.976802,8.80380251" id="Fill-45" fill="#222222" mask="url(#mask-15)"></path>
                        <polygon id="Fill-46" fill="#222222" mask="url(#mask-15)" points="185.235991 16.2251437 192.223955 13.7903611 192.223955 16.0050504 185.235991 18.4054434"></polygon>
                        <path d="M202.052636,6.79551953 L202.052636,17.8001867 C202.038192,18.6062786 201.970101,19.410307 201.846298,20.2074576 C201.753446,20.8883714 201.534729,21.5465881 201.199774,22.1470302 L198.565532,22.1470302 C199.00847,21.5961091 199.342736,20.9660919 199.549074,20.2899926 C199.800118,19.483213 199.932174,18.6447949 199.941115,17.8001867 L199.941115,6.79551953 L202.052636,6.79551953 Z" id="Fill-47" fill="#222222" mask="url(#mask-15)"></path>
                    </g>
                </g>
                <text id="百度智能云开物" font-family="FZLTZHK--GBK1-0, FZLanTingHei-DB-GBK" font-size="16" font-weight="normal" fill="#595959">
                    <tspan x="207" y="19">百度智能云开物</tspan>
                </text>
            </g>
        </g>
    </g>
</svg>